# Blender v2.79 (sub 0) OBJ File: ''
# www.blender.org
mtllib Diamonds_Coin.mtl
o Cylinder.001_Cylinder
v 0.000014 0.230000 -0.025000
v -0.000014 0.230000 0.025000
v 0.115014 0.199186 -0.024937
v 0.114986 0.199186 0.025063
v 0.199200 0.115000 -0.024891
v 0.199172 0.115000 0.025109
v 0.230014 -0.000000 -0.024874
v 0.229986 -0.000000 0.025126
v 0.199199 -0.115000 -0.024891
v 0.199172 -0.115000 0.025109
v 0.115014 -0.199186 -0.024937
v 0.114986 -0.199186 0.025063
v 0.000014 -0.230000 -0.025000
v -0.000014 -0.230000 0.025000
v -0.114986 -0.199186 -0.025063
v -0.115014 -0.199186 0.024937
v -0.199172 -0.115000 -0.025109
v -0.199199 -0.115000 0.024891
v -0.229986 0.000000 -0.025126
v -0.230014 0.000000 0.024874
v -0.199172 0.115000 -0.025109
v -0.199199 0.115000 0.024891
v -0.114986 0.199186 -0.025063
v -0.115014 0.199186 0.024937
v 0.000014 0.206366 -0.025000
v 0.103197 0.178718 -0.024943
v 0.103169 0.178718 0.025057
v -0.000014 0.206366 0.025000
v 0.178732 0.103183 -0.024902
v 0.178705 0.103183 0.025098
v 0.206380 -0.000000 -0.024887
v 0.206352 -0.000000 0.025113
v 0.178732 -0.103183 -0.024902
v 0.178704 -0.103183 0.025098
v 0.103197 -0.178718 -0.024943
v 0.103169 -0.178718 0.025056
v 0.000014 -0.206366 -0.025000
v -0.000014 -0.206366 0.025000
v -0.103169 -0.178718 -0.025056
v -0.103197 -0.178718 0.024944
v -0.178705 -0.103183 -0.025098
v -0.178732 -0.103183 0.024902
v -0.206352 0.000000 -0.025113
v -0.206380 0.000000 0.024887
v -0.178705 0.103183 -0.025098
v -0.178732 0.103183 0.024902
v -0.103169 0.178718 -0.025056
v -0.103197 0.178718 0.024944
v 0.000007 0.206366 -0.013427
v 0.103190 0.178718 -0.013371
v 0.103176 0.178718 0.013484
v -0.000007 0.206366 0.013428
v 0.178726 0.103183 -0.013330
v 0.178711 0.103183 0.013525
v 0.206373 -0.000000 -0.013315
v 0.206359 -0.000000 0.013541
v 0.178725 -0.103183 -0.013330
v 0.178711 -0.103183 0.013525
v 0.103190 -0.178718 -0.013371
v 0.103176 -0.178718 0.013484
v 0.000007 -0.206366 -0.013427
v -0.000007 -0.206366 0.013428
v -0.103176 -0.178718 -0.013484
v -0.103190 -0.178718 0.013371
v -0.178711 -0.103183 -0.013525
v -0.178726 -0.103183 0.013330
v -0.206359 0.000000 -0.013540
v -0.206373 0.000000 0.013315
v -0.178711 0.103183 -0.013525
v -0.178726 0.103183 0.013330
v -0.103176 0.178718 -0.013484
v -0.103190 0.178718 0.013371
v -0.000014 0.133200 0.025000
v -0.000014 -0.133200 0.025000
v 0.107750 -0.000000 0.025059
v -0.107778 0.000000 0.024941
v -0.000007 0.172581 0.013428
v -0.000007 -0.172581 0.013428
v 0.139617 -0.000000 0.013504
v -0.139632 0.000000 0.013351
v 0.086874 -0.022022 -0.024952
v 0.075237 -0.070882 -0.024959
v 0.043444 -0.106650 -0.024976
v 0.000014 -0.119742 -0.025000
v -0.043416 -0.106650 -0.025024
v -0.075209 -0.070882 -0.025041
v -0.086847 -0.022022 -0.025047
v 0.000014 -0.022022 -0.025000
v 0.102880 -0.029361 -0.013371
v 0.089098 -0.080797 -0.013379
v 0.051444 -0.118451 -0.013399
v 0.000007 -0.132234 -0.013428
v -0.051429 -0.118451 -0.013456
v -0.089083 -0.080797 -0.013476
v -0.102866 -0.029361 -0.013484
v 0.086874 0.117165 -0.024952
v -0.086846 0.117165 -0.025047
v 0.000014 0.117165 -0.025000
v 0.102880 0.117165 -0.013371
v -0.102866 0.117165 -0.013484
v 0.000007 0.117165 -0.013427
v 0.043444 -0.022022 -0.024976
v 0.043444 0.117165 -0.024976
v -0.058720 0.027443 -0.025032
v -0.028113 0.027443 -0.025015
v -0.058720 0.058029 -0.025032
v -0.028113 0.058029 -0.025015
v 0.058748 0.058029 -0.024968
v 0.028140 0.058029 -0.024984
v 0.058748 0.027443 -0.024968
v 0.028140 0.027443 -0.024984
v 0.051444 0.117165 -0.013399
v 0.043444 0.061605 -0.024976
v 0.043444 0.023867 -0.024976
v -0.043416 -0.022022 -0.025024
v -0.043416 0.117165 -0.025024
v -0.051429 0.117165 -0.013456
v -0.043416 0.023867 -0.025024
v -0.043416 0.061605 -0.025024
v 0.000014 0.047571 -0.025000
v -0.028119 0.027443 -0.013443
v -0.024468 0.042736 -0.025013
v -0.062365 0.042736 -0.025034
v 0.024495 0.042736 -0.024986
v 0.062393 0.042736 -0.024966
v -0.058727 0.027443 -0.013460
v -0.058726 0.058029 -0.013460
v -0.028119 0.058029 -0.013443
v 0.058741 0.058029 -0.013395
v 0.028134 0.058029 -0.013412
v 0.058741 0.027443 -0.013395
v 0.028134 0.027443 -0.013412
v 0.043437 0.061605 -0.013404
v 0.043437 0.023867 -0.013404
v -0.043423 0.023867 -0.013451
v -0.043423 0.061605 -0.013451
v -0.024474 0.042736 -0.013441
v -0.062372 0.042736 -0.013462
v 0.024489 0.042736 -0.013414
v 0.062386 0.042736 -0.013393
v -0.043423 0.042736 -0.013451
v 0.043437 0.042736 -0.013404
v 0.000014 0.230000 -0.025000
v 0.115014 0.199186 -0.024937
v 0.114986 0.199186 0.025063
v -0.000014 0.230000 0.025000
v 0.199200 0.115000 -0.024891
v 0.199172 0.115000 0.025109
v 0.230014 -0.000000 -0.024874
v 0.229986 -0.000000 0.025126
v 0.199199 -0.115000 -0.024891
v 0.199172 -0.115000 0.025109
v 0.115014 -0.199186 -0.024937
v 0.114986 -0.199186 0.025063
v 0.000014 -0.230000 -0.025000
v -0.000014 -0.230000 0.025000
v -0.114986 -0.199186 -0.025063
v -0.115014 -0.199186 0.024937
v -0.199172 -0.115000 -0.025109
v -0.199199 -0.115000 0.024891
v -0.229986 0.000000 -0.025126
v -0.230014 0.000000 0.024874
v -0.199172 0.115000 -0.025109
v -0.199199 0.115000 0.024891
v -0.114986 0.199186 -0.025063
v -0.115014 0.199186 0.024937
v 0.000014 0.206366 -0.025000
v 0.103197 0.178718 -0.024943
v 0.103169 0.178718 0.025057
v -0.000014 0.206366 0.025000
v 0.178732 0.103183 -0.024902
v 0.178705 0.103183 0.025098
v 0.206380 -0.000000 -0.024887
v 0.206352 -0.000000 0.025113
v 0.178732 -0.103183 -0.024902
v 0.178704 -0.103183 0.025098
v 0.103197 -0.178718 -0.024943
v 0.103169 -0.178718 0.025056
v 0.000014 -0.206366 -0.025000
v -0.000014 -0.206366 0.025000
v -0.103169 -0.178718 -0.025056
v -0.103197 -0.178718 0.024944
v -0.178705 -0.103183 -0.025098
v -0.178732 -0.103183 0.024902
v -0.206352 0.000000 -0.025113
v -0.206380 0.000000 0.024887
v -0.178705 0.103183 -0.025098
v -0.178732 0.103183 0.024902
v -0.103169 0.178718 -0.025056
v -0.103197 0.178718 0.024944
v 0.000007 0.206366 -0.013427
v 0.103190 0.178718 -0.013371
v 0.103176 0.178718 0.013484
v -0.000007 0.206366 0.013428
v 0.178726 0.103183 -0.013330
v 0.178711 0.103183 0.013525
v 0.206373 -0.000000 -0.013315
v 0.206359 -0.000000 0.013541
v 0.178725 -0.103183 -0.013330
v 0.178711 -0.103183 0.013525
v 0.103190 -0.178718 -0.013371
v 0.103176 -0.178718 0.013484
v 0.000007 -0.206366 -0.013427
v -0.000007 -0.206366 0.013428
v -0.103176 -0.178718 -0.013484
v -0.103190 -0.178718 0.013371
v -0.178711 -0.103183 -0.013525
v -0.178726 -0.103183 0.013330
v -0.206359 0.000000 -0.013540
v -0.206373 0.000000 0.013315
v -0.178711 0.103183 -0.013525
v -0.178726 0.103183 0.013330
v -0.103176 0.178718 -0.013484
v -0.103190 0.178718 0.013371
v -0.086846 0.117165 -0.025047
v -0.086846 0.117165 -0.025047
v -0.043416 0.117165 -0.025024
v -0.107778 0.000000 0.024941
v -0.107778 0.000000 0.024941
v -0.000014 -0.133200 0.025000
v -0.000014 -0.133200 0.025000
v -0.139632 0.000000 0.013351
v -0.139632 0.000000 0.013351
v -0.000007 -0.172581 0.013428
v -0.000007 -0.172581 0.013428
v 0.107750 -0.000000 0.025059
v 0.107750 -0.000000 0.025059
v -0.000014 0.133200 0.025000
v -0.000014 0.133200 0.025000
v 0.139617 -0.000000 0.013504
v 0.139617 -0.000000 0.013504
v -0.000007 0.172581 0.013428
v -0.000007 0.172581 0.013428
v 0.086874 -0.022022 -0.024952
v 0.075237 -0.070882 -0.024959
v 0.043444 -0.106650 -0.024976
v 0.000014 -0.119742 -0.025000
v -0.043416 -0.106650 -0.025024
v -0.075209 -0.070882 -0.025041
v -0.086847 -0.022022 -0.025047
v -0.102866 0.117165 -0.013484
v -0.102866 0.117165 -0.013484
v 0.043444 0.117165 -0.024976
v 0.000014 0.117165 -0.025000
v 0.102880 -0.029361 -0.013371
v 0.089098 -0.080797 -0.013379
v 0.051444 -0.118451 -0.013399
v 0.000007 -0.132234 -0.013428
v -0.051429 -0.118451 -0.013456
v -0.089083 -0.080797 -0.013476
v -0.102866 -0.029361 -0.013484
v 0.086874 0.117165 -0.024952
v 0.086874 0.117165 -0.024952
v 0.102880 0.117165 -0.013371
v 0.102880 0.117165 -0.013371
v 0.051444 0.117165 -0.013399
v 0.000007 0.117165 -0.013427
v -0.051429 0.117165 -0.013456
v 0.043437 0.023867 -0.013404
v 0.028134 0.027443 -0.013412
v 0.058748 0.027443 -0.024968
v 0.043444 0.023867 -0.024976
v 0.058748 0.058029 -0.024968
v 0.043444 0.061605 -0.024976
v -0.043416 0.023867 -0.025024
v -0.028113 0.027443 -0.025015
v -0.043416 0.061605 -0.025024
v -0.028113 0.058029 -0.025015
v -0.024468 0.042736 -0.025013
v -0.062365 0.042736 -0.025034
v -0.058720 0.058029 -0.025032
v 0.028140 0.058029 -0.024984
v 0.028140 0.027443 -0.024984
v 0.024495 0.042736 -0.024986
v 0.062393 0.042736 -0.024966
v -0.058720 0.027443 -0.025032
v -0.043423 0.061605 -0.013451
v -0.028119 0.058029 -0.013443
v 0.043437 0.061605 -0.013404
v 0.028134 0.058029 -0.013412
v -0.043423 0.023867 -0.013451
v -0.028119 0.027443 -0.013443
v -0.062372 0.042736 -0.013462
v -0.058726 0.058029 -0.013460
v 0.058741 0.058029 -0.013395
v -0.024474 0.042736 -0.013441
v 0.058741 0.027443 -0.013395
v 0.024489 0.042736 -0.013414
v 0.062386 0.042736 -0.013393
v -0.058727 0.027443 -0.013460
vt 0.987627 0.194594
vt 0.962118 0.194594
vt 0.962118 0.133853
vt 0.987627 0.133853
vt 0.962118 0.073113
vt 0.987627 0.073113
vt 0.962118 0.012373
vt 0.987627 0.012373
vt 0.987627 0.741256
vt 0.962118 0.741256
vt 0.962118 0.680516
vt 0.987627 0.680516
vt 0.962118 0.619775
vt 0.987627 0.619775
vt 0.962118 0.559035
vt 0.987627 0.559035
vt 0.962118 0.498295
vt 0.987627 0.498295
vt 0.962118 0.437554
vt 0.987627 0.437554
vt 0.962118 0.376814
vt 0.987627 0.376814
vt 0.962118 0.316074
vt 0.987627 0.316074
vt 0.103530 0.254683
vt 0.047579 0.223701
vt 0.056427 0.214504
vt 0.106761 0.242394
vt 0.962118 0.255334
vt 0.987627 0.255334
vt 0.634348 0.518858
vt 0.579157 0.486907
vt 0.588120 0.477967
vt 0.637647 0.506631
vt 0.634854 0.280541
vt 0.698661 0.280701
vt 0.695362 0.292928
vt 0.638089 0.292820
vt 0.224162 0.048583
vt 0.254674 0.104784
vt 0.242362 0.107918
vt 0.214894 0.057353
vt 0.014043 0.168540
vt 0.012373 0.103042
vt 0.025167 0.106171
vt 0.026440 0.164915
vt 0.753862 0.487355
vt 0.698155 0.519018
vt 0.694920 0.506739
vt 0.744790 0.478259
vt 0.547346 0.367831
vt 0.579147 0.312204
vt 0.588219 0.321300
vt 0.559618 0.371096
vt 0.785663 0.367921
vt 0.785663 0.431728
vt 0.773391 0.428463
vt 0.773428 0.371190
vt 0.254674 0.168512
vt 0.223934 0.224943
vt 0.214721 0.215644
vt 0.242335 0.165363
vt 0.044589 0.044094
vt 0.103803 0.012373
vt 0.106823 0.025188
vt 0.054211 0.053805
vt 0.167259 0.255211
vt 0.164206 0.242848
vt 0.547346 0.431637
vt 0.559581 0.428368
vt 0.588219 0.321300
vt 0.638089 0.292820
vt 0.639578 0.298470
vt 0.592422 0.325513
vt 0.214894 0.057353
vt 0.242362 0.107918
vt 0.236657 0.109376
vt 0.210647 0.061390
vt 0.773428 0.371190
vt 0.773391 0.428463
vt 0.767745 0.426959
vt 0.767808 0.372692
vt 0.025167 0.106171
vt 0.054211 0.053805
vt 0.058703 0.058332
vt 0.031043 0.107639
vt 0.588120 0.477967
vt 0.559581 0.428368
vt 0.565201 0.426867
vt 0.592235 0.473863
vt 0.164206 0.242848
vt 0.106761 0.242394
vt 0.108266 0.236702
vt 0.162799 0.237102
vt 0.695362 0.292928
vt 0.693846 0.298544
vt 0.165557 0.026952
vt 0.163866 0.032642
vt 0.744790 0.478259
vt 0.740587 0.474046
vt 0.694920 0.506739
vt 0.693431 0.501088
vt 0.026440 0.164915
vt 0.032144 0.163272
vt 0.559618 0.371096
vt 0.565264 0.372600
vt 0.169283 0.014589
vt 0.165557 0.026952
vt 0.753852 0.312651
vt 0.744889 0.321591
vt 0.124233 0.164607
vt 0.127712 0.158062
vt 0.130430 0.160751
vt 0.128165 0.164563
vt 0.145160 0.205122
vt 0.096466 0.157538
vt 0.127737 0.171043
vt 0.134237 0.174507
vt 0.767808 0.372692
vt 0.716821 0.349589
vt 0.693846 0.298544
vt 0.740774 0.325696
vt 0.767745 0.426959
vt 0.740587 0.474046
vt 0.693431 0.501088
vt 0.728376 0.461806
vt 0.126864 0.127059
vt 0.112468 0.081872
vt 0.142074 0.111928
vt 0.136294 0.083431
vt 0.112468 0.081872
vt 0.110637 0.072682
vt 0.138303 0.073117
vt 0.604633 0.337753
vt 0.639578 0.298470
vt 0.565264 0.372600
vt 0.616189 0.449969
vt 0.565201 0.426867
vt 0.174669 0.175263
vt 0.189666 0.160427
vt 0.196368 0.161454
vt 0.178745 0.179372
vt 0.639163 0.501015
vt 0.056427 0.214504
vt 0.060500 0.210291
vt 0.637647 0.506631
vt 0.639163 0.501015
vt 0.106823 0.025188
vt 0.108242 0.031077
vt 0.744889 0.321591
vt 0.740774 0.325696
vt 0.242335 0.165363
vt 0.236602 0.163907
vt 0.214721 0.215644
vt 0.210435 0.211324
vt 0.619310 0.352467
vt 0.704747 0.361632
vt 0.713699 0.447092
vt 0.628262 0.437926
vt 0.713699 0.447092
vt 0.704747 0.361632
vt 0.716821 0.349589
vt 0.728376 0.461806
vt 0.704747 0.361632
vt 0.619310 0.352467
vt 0.604633 0.337753
vt 0.716821 0.349589
vt 0.619310 0.352467
vt 0.628262 0.437926
vt 0.616189 0.449969
vt 0.604633 0.337753
vt 0.628262 0.437926
vt 0.713699 0.447092
vt 0.728376 0.461806
vt 0.616189 0.449969
vt 0.592235 0.473863
vt 0.592422 0.325513
vt 0.157595 0.096915
vt 0.204772 0.146003
vt 0.174249 0.134827
vt 0.170840 0.128298
vt 0.086655 0.161732
vt 0.096466 0.157538
vt 0.145160 0.205122
vt 0.140772 0.213828
vt 0.136294 0.083431
vt 0.157595 0.096915
vt 0.161871 0.087139
vt 0.213513 0.141689
vt 0.204772 0.146003
vt 0.092503 0.092411
vt 0.081799 0.112288
vt 0.150844 0.151240
vt 0.174669 0.175263
vt 0.144249 0.164487
vt 0.140735 0.157952
vt 0.092503 0.092411
vt 0.086361 0.086218
vt 0.081799 0.112288
vt 0.083159 0.136125
vt 0.072829 0.138048
vt 0.072624 0.110380
vt 0.111607 0.142142
vt 0.083159 0.136125
vt 0.204772 0.146003
vt 0.213513 0.141689
vt 0.159708 0.190136
vt 0.160680 0.196847
vt 0.127737 0.171043
vt 0.130437 0.168327
vt 0.189666 0.160427
vt 0.170646 0.141248
vt 0.157859 0.128165
vt 0.154216 0.134617
vt 0.145160 0.205122
vt 0.140772 0.213828
vt 0.170646 0.141248
vt 0.164146 0.144755
vt 0.164177 0.140799
vt 0.167983 0.138539
vt 0.127712 0.158062
vt 0.124233 0.164607
vt 0.159708 0.190136
vt 0.140688 0.170957
vt 0.154216 0.134617
vt 0.157859 0.128165
vt 0.160525 0.130905
vt 0.158176 0.134667
vt 0.164146 0.144755
vt 0.164433 0.124741
vt 0.157641 0.141186
vt 0.140688 0.170957
vt 0.134237 0.174507
vt 0.134228 0.170570
vt 0.138001 0.168272
vt 0.134195 0.154473
vt 0.140735 0.157952
vt 0.144249 0.164487
vt 0.140293 0.164484
vt 0.138020 0.160687
vt 0.060500 0.210291
vt 0.032144 0.163272
vt 0.072829 0.138048
vt 0.086655 0.161732
vt 0.108266 0.236702
vt 0.140772 0.213828
vt 0.157641 0.141186
vt 0.160398 0.138494
vt 0.134195 0.154473
vt 0.134212 0.158433
vt 0.164433 0.124741
vt 0.164356 0.128672
vt 0.170840 0.128298
vt 0.168101 0.130976
vt 0.174249 0.134827
vt 0.170312 0.134784
vt 0.130437 0.168327
vt 0.128165 0.164563
vt 0.130430 0.160751
vt 0.134223 0.164510
vt 0.168101 0.130976
vt 0.170312 0.134784
vt 0.167983 0.138539
vt 0.164253 0.134729
vt 0.134212 0.158433
vt 0.138020 0.160687
vt 0.164177 0.140799
vt 0.160398 0.138494
vt 0.134228 0.170570
vt 0.138001 0.168272
vt 0.140293 0.164484
vt 0.164356 0.128672
vt 0.160525 0.130905
vt 0.158176 0.134667
vt 0.210435 0.211324
vt 0.178745 0.179372
vt 0.196368 0.161454
vt 0.236602 0.163907
vt 0.213513 0.141689
vt 0.236657 0.109376
vt 0.162799 0.237102
vt 0.160680 0.196847
vt 0.161871 0.087139
vt 0.210647 0.061390
vt 0.031043 0.107639
vt 0.072624 0.110380
vt 0.108242 0.031077
vt 0.110637 0.072682
vt 0.086361 0.086218
vt 0.058703 0.058332
vt 0.138303 0.073117
vt 0.163866 0.032642
vn 0.0000 1.0000 0.0000
vn 0.5000 0.8660 0.0002
vn 0.8660 0.5000 0.0005
vn 1.0000 0.0000 0.0005
vn 0.8660 -0.5000 0.0005
vn 0.5000 -0.8660 0.0002
vn 0.0000 -1.0000 0.0000
vn -0.5000 -0.8660 -0.0002
vn -0.8660 -0.5000 -0.0005
vn -1.0000 0.0000 -0.0005
vn -0.8660 0.5000 -0.0005
vn 0.0005 0.0000 -1.0000
vn -0.5000 0.8660 -0.0002
vn -0.0005 0.0000 1.0000
vn -0.7055 0.7086 -0.0004
vn -0.5043 -0.2707 -0.8200
vn -0.3125 -0.5389 -0.7822
vn -0.3192 -0.5327 -0.7837
vn -0.4969 -0.2877 -0.8187
vn 0.3286 0.2662 0.9062
vn 0.3286 -0.2662 0.9062
vn -0.3296 -0.2662 0.9058
vn -0.3296 0.2662 0.9058
vn 0.5692 -0.0823 -0.8180
vn 0.5744 -0.0595 -0.8164
vn 0.5862 0.0000 -0.8102
vn -0.5735 -0.0595 -0.8170
vn -0.5683 -0.0823 -0.8186
vn -0.5853 0.0000 -0.8108
vn 0.0004 -0.6569 -0.7539
vn 0.3134 -0.5389 -0.7819
vn 0.5051 -0.2707 -0.8194
vn 0.4978 -0.2877 -0.8181
vn 0.3201 -0.5327 -0.7834
vn -0.7055 -0.7086 -0.0004
vn 0.7055 -0.7086 0.0004
vn 0.7055 0.7086 0.0004
usemtl Metal_Bells
s 1
f 143/1/1 146/2/1 145/3/2 144/4/2
f 144/4/2 145/3/2 148/5/3 147/6/3
f 147/6/3 148/5/3 150/7/4 149/8/4
f 149/9/4 150/10/4 152/11/5 151/12/5
f 151/12/5 152/11/5 154/13/6 153/14/6
f 153/14/6 154/13/6 156/15/7 155/16/7
f 155/16/7 156/15/7 158/17/8 157/18/8
f 157/18/8 158/17/8 160/19/9 159/20/9
f 159/20/9 160/19/9 162/21/10 161/22/10
f 161/22/10 162/21/10 164/23/11 163/24/11
f 5/25/12 7/26/12 173/27/12 171/28/12
f 163/24/11 164/23/11 166/29/13 165/30/13
f 165/30/13 166/29/13 146/2/1 143/1/1
f 22/31/14 20/32/14 186/33/14 188/34/14
f 12/35/14 10/36/14 176/37/14 178/38/14
f 19/39/12 21/40/12 187/41/12 43/42/12
f 9/43/12 11/44/12 177/45/12 175/46/12
f 2/47/14 24/48/14 190/49/14 28/50/14
f 16/51/14 14/52/14 180/53/14 182/54/14
f 6/55/14 4/56/14 169/57/14 172/58/14
f 23/59/12 1/60/12 167/61/12 189/62/12
f 13/63/12 15/64/12 181/65/12 179/66/12
f 3/67/12 5/25/12 171/28/12 168/68/12
f 20/32/14 18/69/14 184/70/14 186/33/14
f 38/71/1 36/72/13 202/73/13 204/74/1
f 185/75/4 45/76/5 211/77/5 209/78/4
f 30/79/9 27/80/8 193/81/8 196/82/9
f 35/83/13 37/84/1 203/85/1 201/86/13
f 44/87/4 42/88/3 208/89/3 210/90/4
f 26/91/8 29/92/9 195/93/9 192/94/8
f 36/72/13 34/95/11 200/96/11 202/73/13
f 41/97/3 185/75/4 209/78/4 207/98/3
f 27/80/8 170/99/7 194/100/7 193/81/8
f 170/99/7 48/101/6 214/102/6 194/100/7
f 33/103/11 35/83/13 201/86/13 199/104/11
f 42/88/3 40/105/2 206/106/2 208/89/3
f 15/64/12 17/107/12 183/108/12 181/65/12
f 1/60/12 3/67/12 168/68/12 167/61/12
f 8/109/14 6/55/14 172/58/14 174/110/14
f 18/69/14 16/51/14 182/54/14 184/70/14
f 4/56/14 2/47/14 28/50/14 169/57/14
f 11/44/12 13/63/12 179/66/12 177/45/12
f 21/40/12 23/59/12 189/62/12 187/41/12
f 14/52/14 12/35/14 178/38/14 180/53/14
f 24/48/14 22/31/14 188/34/14 190/49/14
f 7/26/12 9/43/12 175/46/12 173/27/12
f 17/107/12 19/39/12 43/42/12 183/108/12
f 10/36/14 8/109/14 174/110/14 176/37/14
f 261/111/15 114/112/1 259/113/1 287/114/15
f 96/115/12 81/116/12 275/117/12 108/118/12
f 54/119/14 230/120/14 58/121/14 198/122/14
f 51/123/14 52/124/14 72/125/14 232/126/14
f 54/119/14 51/123/14 232/126/14 230/120/14
f 88/127/12 238/128/12 115/129/12
f 86/130/16 85/131/17 249/132/18 250/133/19
f 58/121/14 230/120/14 224/134/14 60/135/14
f 64/136/14 224/134/14 222/137/14 66/138/14
f 244/139/1 217/140/1 258/141/1 257/142/1
f 70/143/14 222/137/14 232/126/14 72/125/14
f 29/92/9 31/144/10 197/145/10 195/93/9
f 46/146/5 44/87/4 210/90/4 212/147/5
f 37/84/1 39/148/2 205/149/2 203/85/1
f 32/150/10 30/79/9 196/82/9 56/151/10
f 45/76/5 47/152/6 213/153/6 211/77/5
f 40/105/2 38/71/1 204/74/1 206/106/2
f 31/144/10 33/103/11 199/104/11 197/145/10
f 48/101/6 46/146/5 212/147/5 214/102/6
f 39/148/2 41/97/3 207/98/3 205/149/2
f 34/95/11 32/150/10 56/151/10 200/96/11
f 47/152/6 25/154/7 191/155/7 213/153/6
f 25/154/7 26/91/8 192/94/8 191/155/7
f 220/156/14 226/157/14 228/158/14 218/159/14
f 229/160/20 227/161/20 231/162/20 233/163/20
f 75/164/21 221/165/21 225/166/21 79/167/21
f 74/168/22 219/169/22 223/170/22 78/171/22
f 76/172/23 73/173/23 77/174/23 80/175/23
f 66/138/14 222/137/14 70/143/14 68/176/14
f 60/135/14 224/134/14 64/136/14 62/177/14
f 240/178/12 97/179/12 271/180/12 270/181/12
f 245/182/24 234/183/25 252/184/26 254/185/26
f 115/129/12 238/128/12 239/186/12 240/178/12
f 87/187/27 251/188/28 241/189/29 216/190/29
f 237/191/12 238/128/12 88/127/12 236/192/12
f 120/193/12 98/194/12 272/195/12 274/196/12
f 87/187/27 86/130/16 250/133/19 251/188/28
f 85/131/17 84/197/30 248/198/30 249/132/18
f 83/199/31 235/200/32 246/201/33 247/202/34
f 84/197/30 83/199/31 247/202/34 248/198/30
f 235/200/32 234/183/25 245/182/24 246/201/33
f 102/203/12 81/116/12 82/204/12 236/192/12
f 217/140/1 215/205/1 242/206/1 258/141/1
f 243/207/1 244/139/1 257/142/1 256/208/1
f 125/209/10 261/111/15 287/114/15 289/210/10
f 97/179/12 116/211/12 119/212/12 271/180/12
f 88/127/12 115/129/12 265/213/12 266/214/12
f 88/127/12 102/203/12 236/192/12
f 253/215/1 243/207/1 256/208/1 255/216/1
f 267/217/7 268/218/35 278/219/35 277/220/7
f 81/116/12 102/203/12 262/221/12 110/222/12
f 98/194/12 103/223/12 264/224/12 272/195/12
f 105/225/15 118/226/1 281/227/1 282/228/15
f 116/211/12 98/194/12 107/229/12 119/212/12
f 115/129/12 240/178/12 276/230/12 265/213/12
f 120/193/12 88/127/12 266/214/12 269/231/12
f 113/232/7 263/233/35 285/234/35 279/235/7
f 102/203/12 88/127/12 273/236/12 262/221/12
f 103/223/12 96/115/12 108/118/12 264/224/12
f 81/116/12 110/222/12 275/117/12
f 98/194/12 120/193/12 269/231/12 107/229/12
f 124/237/4 109/238/36 280/239/36 288/240/4
f 109/238/36 113/232/7 279/235/7 280/239/36
f 263/233/35 125/209/10 289/210/10 285/234/35
f 88/127/12 120/193/12 274/196/12 273/236/12
f 55/241/12 57/242/12 90/243/12 89/244/12
f 53/245/12 55/241/12 89/244/12 99/246/12
f 240/178/12 270/181/12 276/230/12
f 268/218/35 122/247/10 286/248/10 278/219/35
f 114/112/1 111/249/37 260/250/37 259/113/1
f 122/247/10 105/225/15 282/228/15 286/248/10
f 118/226/1 104/251/37 290/252/37 281/227/1
f 104/251/37 123/253/4 283/254/4 290/252/37
f 111/249/37 124/237/4 288/240/4 260/250/37
f 123/253/4 106/255/36 284/256/36 283/254/4
f 106/255/36 267/217/7 277/220/7 284/256/36
f 140/257/12 131/258/12 134/259/12 142/260/12
f 138/261/12 127/262/12 136/263/12 141/264/12
f 132/265/12 139/266/12 142/260/12 134/259/12
f 136/263/12 128/267/12 137/268/12 141/264/12
f 129/269/12 140/257/12 142/260/12 133/270/12
f 130/271/12 133/270/12 142/260/12 139/266/12
f 126/272/12 138/261/12 141/264/12 135/273/12
f 137/268/12 121/274/12 135/273/12 141/264/12
f 49/275/12 101/276/12 117/277/12 71/278/12
f 71/278/12 117/277/12 100/279/12 69/280/12
f 49/275/12 50/281/12 112/282/12 101/276/12
f 50/281/12 53/245/12 99/246/12 112/282/12
f 69/280/12 100/279/12 95/283/12 67/284/12
f 57/242/12 59/285/12 91/286/12 90/243/12
f 63/287/12 93/288/12 92/289/12 61/290/12
f 61/290/12 92/289/12 91/286/12 59/285/12
f 67/284/12 95/283/12 94/291/12 65/292/12
f 65/292/12 94/291/12 93/288/12 63/287/12
